<?xml version="1.0" encoding="UTF-8"?>
<svg width="32" height="32" version="1.1" viewBox="0 0 32 32" xmlns="http://www.w3.org/2000/svg" xmlns:cc="http://creativecommons.org/ns#" xmlns:dc="http://purl.org/dc/elements/1.1/" xmlns:osb="http://www.openswatchbook.org/uri/2009/osb" xmlns:rdf="http://www.w3.org/1999/02/22-rdf-syntax-ns#">
 <metadata>
  <rdf:RDF>
   <cc:Work rdf:about="">
    <dc:format>image/svg+xml</dc:format>
    <dc:type rdf:resource="http://purl.org/dc/dcmitype/StillImage"/>
    <dc:title/>
   </cc:Work>
  </rdf:RDF>
 </metadata>
 <path d="M23.139 12.339c.006.157.008.318.008.48 0 4.864-3.702 10.474-10.478 10.474a10.391 10.391 0 0 1-5.646-1.654 7.396 7.396 0 0 0 5.454-1.523 3.69 3.69 0 0 1-3.44-2.56c.224.044.453.065.693.065.333 0 .661-.042.968-.129a3.683 3.683 0 0 1-2.955-3.608c0-.016 0-.032.004-.048a3.627 3.627 0 0 0 1.668.458 3.687 3.687 0 0 1-1.143-4.915 10.458 10.458 0 0 0 7.589 3.848 3.684 3.684 0 0 1 6.274-3.36 7.257 7.257 0 0 0 2.342-.894 3.703 3.703 0 0 1-1.621 2.04 7.3 7.3 0 0 0 2.115-.578 7.47 7.47 0 0 1-1.832 1.904M15.998 0C7.177 0 0 7.179 0 15.999 0 24.823 7.178 32 15.998 32 24.821 32 32 24.823 32 16c0-8.822-7.179-16-16.002-16" fill="#999"/>
 <path d="m43.786 22.687v-3.7841l2.1975 1.2662c1.2086 0.69639 2.6851 1.5456 3.281 1.8872 0.59593 0.34154 1.0775 0.62676 1.0701 0.63382-0.0074 0.0071-1.458 0.84476-3.2237 1.8616-1.7657 1.0168-3.2361 1.8647-3.2676 1.8841-0.03153 0.01947-0.05733-1.6675-0.05733-3.7487z" fill="#fff"/>
 <g transform="translate(-30.192 -6.7263)">
  <g transform="translate(.91723 .68792)">
   <path class="st0" transform="matrix(.21173 0 0 .21173 33.464 13.686)" d="m110.41 12.351c-1.3001-4.8289-5.1075-8.6363-9.9363-9.9363-8.822-2.4144-44.11-2.4144-44.11-2.4144s-35.288 0-44.11 2.3216c-4.736 1.3001-8.6363 5.2003-9.9363 10.029-2.3216 8.822-2.3216 27.116-2.3216 27.116s0 18.387 2.3216 27.116c1.3001 4.8289 5.1075 8.6363 9.9363 9.9363 8.9149 2.4144 44.11 2.4144 44.11 2.4144s35.288 0 44.11-2.3216c4.8289-1.3001 8.6363-5.1075 9.9363-9.9363 2.3216-8.822 2.3216-27.116 2.3216-27.116s0.0929-18.387-2.3216-27.209z" fill="#2f3031" stroke-width=".92863"/>
   <polygon class="st1" transform="matrix(.19661 0 0 .19661 33.464 13.686)" points="80.2 42.5 48.6 24.3 48.6 60.7" fill="#fff"/>
   <path d="m43.049 22.031v-3.524l0.15971 0.10316c0.08784 0.05674 1.4533 0.84679 3.0344 1.7557 1.5811 0.90889 2.8817 1.6583 2.8902 1.6654 0.01271 0.0106-5.3641 3.1293-5.9182 3.4327l-0.16617 0.09099z" fill="#999" stroke-width=".07098"/>
  </g>
 </g>
 <g fill-opacity="0" stroke-width=".076436">
  <path d="m43.136 31.614c-3.353-0.10076-5.8689-0.2869-6.7483-0.4993-0.88638-0.21407-1.708-0.86232-2.1177-1.6709-0.11192-0.22086-0.26762-0.73276-0.346-1.1376-0.56399-2.9127-0.51885-9.2562 0.0826-11.608 0.3834-1.4991 1.3615-2.3344 3.0174-2.5769 3.4958-0.51191 14.729-0.5138 18.418-0.0031 1.2097 0.16745 1.8183 0.43862 2.3995 1.0692 0.81095 0.87977 1.0616 2.0272 1.2397 5.6754 0.13463 2.7572-0.08858 6.483-0.4728 7.892-0.19175 0.70317-0.41394 1.094-0.88727 1.5606-0.81916 0.80758-1.699 1.0054-5.2984 1.1913-1.5391 0.0795-7.8012 0.15165-9.2869 0.10701zm4.047-6.9964c2.9046-1.673 3.3172-1.9328 3.1982-2.0143-0.24088-0.16489-6.3992-3.6973-6.5381-3.7503-0.1263-0.04815-0.13376 0.16473-0.13376 3.8172 0 2.2691 0.02872 3.8682 0.06947 3.8682 0.03821 0 1.5701-0.86435 3.4043-1.9208z"/>
  <path d="m43.136 31.614c-3.353-0.10076-5.8689-0.2869-6.7483-0.4993-0.88638-0.21407-1.708-0.86232-2.1177-1.6709-0.11192-0.22086-0.26762-0.73276-0.346-1.1376-0.56399-2.9127-0.51885-9.2562 0.0826-11.608 0.3834-1.4991 1.3615-2.3344 3.0174-2.5769 3.4958-0.51191 14.729-0.5138 18.418-0.0031 1.2097 0.16745 1.8183 0.43862 2.3995 1.0692 0.81095 0.87977 1.0616 2.0272 1.2397 5.6754 0.13463 2.7572-0.08858 6.483-0.4728 7.892-0.19175 0.70317-0.41394 1.094-0.88727 1.5606-0.81916 0.80758-1.699 1.0054-5.2984 1.1913-1.5391 0.0795-7.8012 0.15165-9.2869 0.10701zm4.047-6.9964c2.9046-1.673 3.3172-1.9328 3.1982-2.0143-0.24088-0.16489-6.3992-3.6973-6.5381-3.7503-0.1263-0.04815-0.13376 0.16473-0.13376 3.8172 0 2.2691 0.02872 3.8682 0.06947 3.8682 0.03821 0 1.5701-0.86435 3.4043-1.9208z"/>
  <path d="m43.136 31.614c-3.353-0.10076-5.8689-0.2869-6.7483-0.4993-0.88638-0.21407-1.708-0.86232-2.1177-1.6709-0.11192-0.22086-0.26762-0.73276-0.346-1.1376-0.56399-2.9127-0.51885-9.2562 0.0826-11.608 0.3834-1.4991 1.3615-2.3344 3.0174-2.5769 3.4958-0.51191 14.729-0.5138 18.418-0.0031 1.2097 0.16745 1.8183 0.43862 2.3995 1.0692 0.81095 0.87977 1.0616 2.0272 1.2397 5.6754 0.13463 2.7572-0.08858 6.483-0.4728 7.892-0.19175 0.70317-0.41394 1.094-0.88727 1.5606-0.81916 0.80758-1.699 1.0054-5.2984 1.1913-1.5391 0.0795-7.8012 0.15165-9.2869 0.10701zm4.047-6.9964c2.9046-1.673 3.3172-1.9328 3.1982-2.0143-0.24088-0.16489-6.3992-3.6973-6.5381-3.7503-0.1263-0.04815-0.13376 0.16473-0.13376 3.8172 0 2.2691 0.02872 3.8682 0.06947 3.8682 0.03821 0 1.5701-0.86435 3.4043-1.9208z"/>
  <path d="m43.136 31.614c-3.353-0.10076-5.8689-0.2869-6.7483-0.4993-0.88638-0.21407-1.708-0.86232-2.1177-1.6709-0.11192-0.22086-0.26762-0.73276-0.346-1.1376-0.56399-2.9127-0.51885-9.2562 0.0826-11.608 0.3834-1.4991 1.3615-2.3344 3.0174-2.5769 3.4958-0.51191 14.729-0.5138 18.418-0.0031 1.2097 0.16745 1.8183 0.43862 2.3995 1.0692 0.81095 0.87977 1.0616 2.0272 1.2397 5.6754 0.13463 2.7572-0.08858 6.483-0.4728 7.892-0.19175 0.70317-0.41394 1.094-0.88727 1.5606-0.81916 0.80758-1.699 1.0054-5.2984 1.1913-1.5391 0.0795-7.8012 0.15165-9.2869 0.10701zm4.047-6.9964c2.9046-1.673 3.3172-1.9328 3.1982-2.0143-0.24088-0.16489-6.3992-3.6973-6.5381-3.7503-0.1263-0.04815-0.13376 0.16473-0.13376 3.8172 0 2.2691 0.02872 3.8682 0.06947 3.8682 0.03821 0 1.5701-0.86435 3.4043-1.9208z"/>
  <path d="m43.136 31.614c-3.353-0.10076-5.8689-0.2869-6.7483-0.4993-0.88638-0.21407-1.708-0.86232-2.1177-1.6709-0.11192-0.22086-0.26762-0.73276-0.346-1.1376-0.56399-2.9127-0.51885-9.2562 0.0826-11.608 0.3834-1.4991 1.3615-2.3344 3.0174-2.5769 3.4958-0.51191 14.729-0.5138 18.418-0.0031 1.2097 0.16745 1.8183 0.43862 2.3995 1.0692 0.81095 0.87977 1.0616 2.0272 1.2397 5.6754 0.13463 2.7572-0.08858 6.483-0.4728 7.892-0.19175 0.70317-0.41394 1.094-0.88727 1.5606-0.81916 0.80758-1.699 1.0054-5.2984 1.1913-1.5391 0.0795-7.8012 0.15165-9.2869 0.10701zm4.047-6.9964c2.9046-1.673 3.3172-1.9328 3.1982-2.0143-0.24088-0.16489-6.3992-3.6973-6.5381-3.7503-0.1263-0.04815-0.13376 0.16473-0.13376 3.8172 0 2.2691 0.02872 3.8682 0.06947 3.8682 0.03821 0 1.5701-0.86435 3.4043-1.9208z"/>
  <path d="m43.136 31.614c-3.353-0.10076-5.8689-0.2869-6.7483-0.4993-0.88638-0.21407-1.708-0.86232-2.1177-1.6709-0.11192-0.22086-0.26762-0.73276-0.346-1.1376-0.56399-2.9127-0.51885-9.2562 0.0826-11.608 0.3834-1.4991 1.3615-2.3344 3.0174-2.5769 3.4958-0.51191 14.729-0.5138 18.418-0.0031 1.2097 0.16745 1.8183 0.43862 2.3995 1.0692 0.81095 0.87977 1.0616 2.0272 1.2397 5.6754 0.13463 2.7572-0.08858 6.483-0.4728 7.892-0.19175 0.70317-0.41394 1.094-0.88727 1.5606-0.81916 0.80758-1.699 1.0054-5.2984 1.1913-1.5391 0.0795-7.8012 0.15165-9.2869 0.10701zm4.047-6.9964c2.9046-1.673 3.3172-1.9328 3.1982-2.0143-0.24088-0.16489-6.3992-3.6973-6.5381-3.7503-0.1263-0.04815-0.13376 0.16473-0.13376 3.8172 0 2.2691 0.02872 3.8682 0.06947 3.8682 0.03821 0 1.5701-0.86435 3.4043-1.9208z"/>
  <path d="m43.136 31.614c-3.353-0.10076-5.8689-0.2869-6.7483-0.4993-0.88638-0.21407-1.708-0.86232-2.1177-1.6709-0.11192-0.22086-0.26762-0.73276-0.346-1.1376-0.56399-2.9127-0.51885-9.2562 0.0826-11.608 0.3834-1.4991 1.3615-2.3344 3.0174-2.5769 3.4958-0.51191 14.729-0.5138 18.418-0.0031 1.2097 0.16745 1.8183 0.43862 2.3995 1.0692 0.81095 0.87977 1.0616 2.0272 1.2397 5.6754 0.13463 2.7572-0.08858 6.483-0.4728 7.892-0.19175 0.70317-0.41394 1.094-0.88727 1.5606-0.81916 0.80758-1.699 1.0054-5.2984 1.1913-1.5391 0.0795-7.8012 0.15165-9.2869 0.10701zm4.047-6.9964c2.9046-1.673 3.3172-1.9328 3.1982-2.0143-0.24088-0.16489-6.3992-3.6973-6.5381-3.7503-0.1263-0.04815-0.13376 0.16473-0.13376 3.8172 0 2.2691 0.02872 3.8682 0.06947 3.8682 0.03821 0 1.5701-0.86435 3.4043-1.9208z"/>
  <path d="m43.136 31.614c-3.353-0.10076-5.8689-0.2869-6.7483-0.4993-0.88638-0.21407-1.708-0.86232-2.1177-1.6709-0.11192-0.22086-0.26762-0.73276-0.346-1.1376-0.56399-2.9127-0.51885-9.2562 0.0826-11.608 0.3834-1.4991 1.3615-2.3344 3.0174-2.5769 3.4958-0.51191 14.729-0.5138 18.418-0.0031 1.2097 0.16745 1.8183 0.43862 2.3995 1.0692 0.81095 0.87977 1.0616 2.0272 1.2397 5.6754 0.13463 2.7572-0.08858 6.483-0.4728 7.892-0.19175 0.70317-0.41394 1.094-0.88727 1.5606-0.81916 0.80758-1.699 1.0054-5.2984 1.1913-1.5391 0.0795-7.8012 0.15165-9.2869 0.10701zm4.047-6.9964c2.9046-1.673 3.3172-1.9328 3.1982-2.0143-0.24088-0.16489-6.3992-3.6973-6.5381-3.7503-0.1263-0.04815-0.13376 0.16473-0.13376 3.8172 0 2.2691 0.02872 3.8682 0.06947 3.8682 0.03821 0 1.5701-0.86435 3.4043-1.9208z"/>
 </g>
</svg>
