<svg xmlns="http://www.w3.org/2000/svg" width="32" height="32" viewBox="0 0 32 32"><g fill="#7B7979"><path d="M17.226 19.204a1.834 1.834 0 0 1-1.226.492c-.433 0-.863-.166-1.227-.492l-2.976-2.69-5.336 4.823c0 .905.611 1.642 1.362 1.642h16.352c.75 0 1.362-.736 1.362-1.642l-5.335-4.823-2.976 2.69zM6.462 11.69v8.62L11.23 16zm19.076 8.62v-8.62L20.769 16z"/><path d="M24.176 9.021H7.824c-.751 0-1.362.737-1.362 1.642l8.721 7.883c.237.214.521.328.817.328s.579-.113.816-.328l8.722-7.883c0-.905-.612-1.642-1.362-1.642z"/><path d="M16 0C7.178 0 0 7.178 0 15.998 0 24.821 7.178 32 15.999 32 24.821 32 32 24.823 32 15.998 32 7.177 24.821 0 16 0zm10.9 21.336c0 1.812-1.22 3.283-2.725 3.283H7.824c-1.505 0-2.725-1.471-2.725-3.283V10.664c0-1.812 1.22-3.284 2.725-3.284h16.352c1.505 0 2.725 1.471 2.725 3.284v10.672z"/></g></svg>