<svg xmlns="http://www.w3.org/2000/svg" width="32" height="32" viewBox="0 0 32 32"><path fill="#999" d="M23.139 12.339c.006.157.008.318.008.48 0 4.864-3.702 10.474-10.478 10.474a10.391 10.391 0 0 1-5.646-1.654 7.396 7.396 0 0 0 5.454-1.523 3.69 3.69 0 0 1-3.44-2.56c.224.044.453.065.693.065.333 0 .661-.042.968-.129a3.683 3.683 0 0 1-2.955-3.608c0-.016 0-.032.004-.048a3.627 3.627 0 0 0 1.668.458 3.687 3.687 0 0 1-1.143-4.915 10.458 10.458 0 0 0 7.589 3.848 3.684 3.684 0 0 1 6.274-3.36 7.257 7.257 0 0 0 2.342-.894 3.703 3.703 0 0 1-1.621 2.04 7.3 7.3 0 0 0 2.115-.578 7.47 7.47 0 0 1-1.832 1.904M15.998 0C7.177 0 0 7.179 0 15.999 0 24.823 7.178 32 15.998 32 24.821 32 32 24.823 32 16c0-8.822-7.179-16-16.002-16"/></svg>