<svg xmlns="http://www.w3.org/2000/svg" width="34.133" height="34.133" viewBox="0 0 34.133 34.133"><path fill="#999" d="M17.066 0C7.641 0 0 7.641 0 17.066c0 9.426 7.641 17.066 17.066 17.066 9.426 0 17.066-7.641 17.066-17.066C34.133 7.641 26.492 0 17.066 0zm0 6.773c3.791 0 4.598.038 5.686.262 2.32.478 3.926 2.074 4.342 4.317.176.951.232 1.899.272 4.608.058 3.815-.071 6.179-.405 7.333-.305 1.053-.754 1.782-1.551 2.525-.737.689-1.646 1.125-2.89 1.386-.569.119-.923.131-4.675.151-2.232.013-4.498 0-5.033-.029-1.163-.061-1.981-.254-2.769-.646-.687-.346-1.041-.611-1.587-1.191-.866-.922-1.334-2-1.521-3.51-.141-1.139-.211-3.637-.171-6.083.043-2.624.103-3.632.273-4.544.418-2.245 2.021-3.838 4.341-4.316 1.089-.224 1.897-.263 5.688-.263zm0 2.241c-2.096 0-4.192.022-4.579.067-1.982.226-3.051 1.06-3.373 2.627-.154.747-.231 2.532-.231 5.306 0 2.768.075 4.464.229 5.212.139.675.483 1.323.909 1.711.686.627 1.531.9 3.019.979 1.364.072 6.528.078 7.858.009 1.704-.089 2.496-.334 3.213-.987.424-.389.769-1.036.907-1.711.154-.748.229-2.444.229-5.212 0-2.773-.078-4.559-.232-5.306-.32-1.568-1.389-2.4-3.372-2.627-.385-.045-2.481-.068-4.577-.068zm5.62 2.038c.163.026.328.089.479.19.309.204.486.564.486.985 0 .651-.421 1.083-1.088 1.12-.311.018-.443-.004-.594-.102-.582-.373-.766-.946-.494-1.543a1.123 1.123 0 0 1 1.211-.65zm-5.88 1.11c.64-.027 1.28.07 1.883.286.689.245 1.168.54 1.738 1.075a5.112 5.112 0 0 1 1.62 4.052 4.811 4.811 0 0 1-.505 1.935c-.609 1.273-1.629 2.169-2.985 2.625-.52.176-.731.211-1.362.23-.496.014-.889-.01-1.169-.072-1.562-.351-2.777-1.303-3.478-2.729-.368-.746-.482-1.197-.527-2.048-.155-2.936 2.118-5.235 4.785-5.354zm.455 2.157a2.874 2.874 0 0 0-1.461.273c-1.863.875-2.26 3.433-.75 4.831.75.693 1.614.949 2.549.752 1.376-.29 2.324-1.48 2.324-2.923a2.912 2.912 0 0 0-2.662-2.933z"/></svg>