<svg xmlns="http://www.w3.org/2000/svg" width="23" height="20.667" viewBox="0 0 21.56219 19.37471"><path d="M16.038 19.357l-.294-.105c-.126-.045-1.04-.71-2.208-1.607-1.096-.842-2.009-1.524-2.029-1.518-.02.007-.577.504-1.238 1.104-.662.6-1.288 1.138-1.393 1.194-.141.077-.29.103-.58.103-.627 0-.925-.216-1.245-.902-.07-.151-.481-1.424-.912-2.829l-.785-2.553-2.153-.729c-1.184-.4-2.223-.773-2.309-.827-1.16-.74-1.194-2.05-.07-2.714.153-.091 3.177-1.386 6.72-2.878C20.624-.41 19.596.007 20.067.007c.575 0 1.145.37 1.38.895.237.531.263.368-1.45 9.133-1.174 6.01-1.6 8.093-1.693 8.287a1.77 1.77 0 0 1-.847.867c-.307.15-.4.171-.843.183-.273.007-.532 0-.575-.015zm.697-1.662a.707.707 0 0 0 .083-.09c0-.006.698-3.576 1.55-7.934.853-4.358 1.535-7.93 1.516-7.938-.02-.007-1.53.614-3.357 1.382C6.313 7.41 1.905 9.275 1.906 9.303c0 .017 1.083.396 2.405.842l2.404.81 5.057-3.133C14.554 6.1 16.9 4.665 16.984 4.635c.195-.068.353.007.353.168 0 .154-.24.386-4.365 4.218-1.9 1.766-3.555 3.308-3.677 3.426l-.222.216-.31 1.97a78.329 78.329 0 0 0-.297 1.979c.007.005.675-.597 1.486-1.337 1.31-1.197 1.484-1.339 1.56-1.274a434.76 434.76 0 0 0 4.864 3.713c.144.083.264.077.36-.019z" fill="#868686"/></svg>