<svg xmlns="http://www.w3.org/2000/svg" width="32" height="32.001" viewBox="0 0 29.999998 30.00114"><path d="M14.998 0C6.728.001 0 6.73 0 14.998 0 23.27 6.728 30 14.998 30 23.27 30.001 30 23.271 30 14.998 30 6.728 23.27.001 15 0h-.002zm7.969 7.136c.221 0 .595.353.595.562 0 .234-3.173 15.467-3.267 15.68-.171.39-.792.618-1.217.444-.092-.037-1.238-.847-2.545-1.796l-2.379-1.727-1.296 1.236c-1.374 1.308-1.611 1.484-1.9 1.412-.422-.106-.494-.26-1.471-3.162l-.97-2.884-2.348-.729c-1.908-.593-2.383-.771-2.536-.949-.307-.355-.218-.772.212-.992.467-.239 18.946-7.095 19.122-7.095zm-3.2 2.95c-.086-.017-2.26 1.317-5.113 3.136-2.73 1.74-4.98 3.177-4.999 3.192-.029.022.384 1.43 1.183 4.037.09.293.175.52.19.504.016-.016.093-.655.173-1.42l.144-1.387 4.31-3.886c2.725-2.457 4.3-3.934 4.283-4.017-.014-.072-.09-.144-.172-.16z" fill="#7b7979"/></svg>