<?xml version="1.0" encoding="utf-8"?>
<!-- Generator: Adobe Illustrator 16.0.0, SVG Export Plug-In . SVG Version: 6.00 Build 0)  -->
<!DOCTYPE svg PUBLIC "-//W3C//DTD SVG 1.1//EN" "http://www.w3.org/Graphics/SVG/1.1/DTD/svg11.dtd">
<svg version="1.1" id="Layer_1" xmlns="http://www.w3.org/2000/svg" xmlns:xlink="http://www.w3.org/1999/xlink" x="0px" y="0px"
	 width="32px" height="32px" viewBox="0 0 32 32" enable-background="new 0 0 32 32" xml:space="preserve">
<g>
	<path fill="#7B7979" d="M17.226,19.204c-0.363,0.326-0.795,0.492-1.226,0.492c-0.433,0-0.863-0.166-1.227-0.492l-2.976-2.69
		l-5.336,4.823c0,0.905,0.611,1.642,1.362,1.642h16.352c0.75,0,1.362-0.736,1.362-1.642l-5.335-4.823L17.226,19.204z"/>
	<polygon fill="#7B7979" points="6.462,11.69 6.462,20.31 11.23,16 	"/>
	<polygon fill="#7B7979" points="25.538,20.31 25.538,11.69 20.769,16 	"/>
	<path fill="#7B7979" d="M24.176,9.021H7.824c-0.751,0-1.362,0.737-1.362,1.642l8.721,7.883c0.237,0.214,0.521,0.328,0.817,0.328
		s0.579-0.113,0.816-0.328l8.722-7.883C25.538,9.758,24.926,9.021,24.176,9.021z"/>
	<path fill="#7B7979" d="M16,0C7.178,0,0,7.178,0,15.998C0,24.821,7.178,32,15.999,32C24.821,32,32,24.823,32,15.998
		C32,7.177,24.821,0,16,0z M26.9,21.336c0,1.812-1.22,3.283-2.725,3.283H7.824c-1.505,0-2.725-1.471-2.725-3.283V10.664
		c0-1.812,1.22-3.284,2.725-3.284h16.352c1.505,0,2.725,1.471,2.725,3.284V21.336z"/>
</g>
</svg>
